<svg width="500" height="315" viewBox="0 0 500 315" fill="none" xmlns="http://www.w3.org/2000/svg">
<mask id="mask0_21_26" style="mask-type:luminance" maskUnits="userSpaceOnUse" x="0" y="0" width="500" height="315">
<path d="M500 0.377075H0V314.623H500V0.377075Z" fill="white"/>
</mask>
<g mask="url(#mask0_21_26)">
<path d="M74.9613 105.096H51.0077V179.283H41.2218V105.096H17.4143V96.3337H74.9613V105.096ZM120.093 119.991L92.7804 188.775C87.9604 201.042 81.0958 207.176 72.3323 207.176C69.8493 207.176 67.8045 206.884 66.1978 206.446V197.975C68.2427 198.705 70.1414 198.997 71.748 198.997C76.5679 198.997 80.0733 196.077 82.5564 190.381L87.2301 179.137L64.153 119.991H74.6692L90.7356 165.555C90.8816 166.139 91.3198 167.599 91.9042 170.083H92.1962C92.3423 169.206 92.7804 167.745 93.3646 165.701L110.161 119.991H120.093ZM135.575 170.667H135.283V206.446H125.79V119.991H135.283V130.361H135.575C140.25 122.474 147.115 118.531 156.024 118.531C163.619 118.531 169.608 121.16 173.843 126.417C178.079 131.675 180.27 138.831 180.27 147.739C180.27 157.669 177.786 165.555 172.967 171.543C168.146 177.53 161.573 180.451 153.248 180.451C145.8 180.743 139.812 177.384 135.575 170.667ZM135.429 146.863V155.187C135.429 160.151 137.036 164.241 140.25 167.599C143.462 170.959 147.407 172.711 152.372 172.711C158.068 172.711 162.597 170.521 165.956 166.139C169.17 161.759 170.776 155.625 170.776 147.739C170.776 141.167 169.314 135.909 166.248 132.259C163.181 128.461 159.091 126.709 153.833 126.709C148.283 126.709 143.901 128.607 140.542 132.405C137.036 136.201 135.429 141.021 135.429 146.863ZM238.4 151.973H196.628C196.774 158.545 198.527 163.657 201.887 167.307C205.245 170.959 209.92 172.711 215.907 172.711C222.626 172.711 228.761 170.521 234.31 166.139V175.047C229.054 178.845 222.188 180.743 213.717 180.743C205.391 180.743 198.819 178.115 193.999 172.711C189.179 167.307 186.842 159.713 186.842 150.075C186.842 140.875 189.471 133.281 194.73 127.585C199.987 121.744 206.414 118.823 214.155 118.823C221.896 118.823 227.886 121.306 232.121 126.417C236.357 131.383 238.547 138.393 238.547 147.301L238.4 151.973ZM228.614 143.941C228.614 138.393 227.301 134.157 224.671 131.091C222.042 128.023 218.391 126.563 213.863 126.563C209.334 126.563 205.539 128.169 202.471 131.383C199.404 134.595 197.358 138.831 196.628 143.941H228.614ZM243.075 176.361V169.791C249.064 173.587 255.051 175.485 261.186 175.485C267.613 175.485 272.579 174.171 275.937 171.397C279.297 168.622 280.903 164.971 280.903 160.151C280.903 155.917 279.735 152.557 277.546 149.929C275.354 147.447 270.387 143.941 262.939 139.561C254.468 134.595 249.21 130.507 247.018 127.293C244.829 123.935 243.66 120.138 243.66 115.902C243.66 110.061 245.997 105.096 250.523 101.007C255.051 96.9179 261.186 94.8733 268.781 94.8733C273.747 94.8733 278.714 95.7496 283.533 97.3559V103.343C278.714 101.153 273.455 99.9846 267.906 99.9846C262.209 99.9846 257.826 101.445 254.468 104.22C251.108 107.14 249.502 110.645 249.502 115.026C249.502 119.261 250.67 122.62 252.859 125.103C255.051 127.585 260.017 131.091 267.465 135.325C275.206 139.707 280.32 143.649 282.949 147.009C285.576 150.367 286.746 154.311 286.746 158.837C286.746 165.263 284.555 170.375 280.173 174.463C275.792 178.553 269.512 180.451 261.478 180.451C258.556 180.451 255.343 180.013 251.546 179.137C247.748 178.261 244.973 177.53 243.075 176.361ZM336.114 176.653C331.731 179.283 326.475 180.743 320.34 180.743C312.307 180.743 305.734 177.969 300.768 172.419C295.801 166.869 293.32 159.713 293.32 150.659C293.32 141.313 296.094 133.573 301.644 127.585C307.194 121.598 314.35 118.531 323.115 118.531C327.643 118.531 332.024 119.407 336.259 121.306V127.293C332.024 124.665 327.35 123.351 322.385 123.351C315.374 123.351 309.823 125.833 305.442 130.799C301.061 135.763 299.014 142.335 299.014 150.221C299.014 157.961 301.061 164.095 305.004 168.767C308.947 173.441 314.205 175.777 320.631 175.777C326.62 175.777 331.731 174.171 336.114 171.105V176.653ZM371.461 125.541C369.708 124.227 367.663 123.642 365.179 123.642C360.505 123.642 356.562 126.125 353.495 130.945C350.28 135.763 348.822 142.627 348.822 151.535V179.429H343.562V119.991H348.822V133.135H349.112C350.427 128.607 352.619 125.103 355.54 122.62C358.462 120.138 361.819 118.823 365.765 118.823C367.954 118.823 370 119.115 371.606 119.846V125.541H371.461ZM379.933 105.096C378.762 105.096 377.741 104.658 376.865 103.781C375.987 102.905 375.549 101.883 375.549 100.569C375.549 99.2544 375.987 98.2321 376.865 97.5019C377.741 96.7717 378.762 96.3337 379.933 96.3337C381.101 96.3337 382.122 96.7717 383.145 97.5019C384.02 98.2321 384.458 99.2544 384.458 100.569C384.458 101.737 384.02 102.905 383.145 103.781C382.122 104.658 381.101 105.096 379.933 105.096ZM377.303 179.283V119.991H382.56V179.283H377.303ZM400.818 168.767H400.526V206.591H395.266V119.991H400.526V132.259H400.818C403.007 127.877 405.929 124.519 409.872 122.182C413.818 119.846 418.199 118.677 422.872 118.677C430.468 118.677 436.31 121.306 440.546 126.417C444.781 131.675 446.826 138.685 446.826 147.593C446.826 157.523 444.343 165.555 439.523 171.689C434.703 177.822 428.277 180.889 420.391 180.889C411.626 180.743 405.053 176.799 400.818 168.767ZM400.526 146.717V154.165C400.526 160.151 402.425 165.263 406.075 169.498C409.872 173.733 414.694 175.923 420.829 175.923C426.815 175.923 431.781 173.295 435.58 168.183C439.378 162.927 441.276 156.209 441.276 147.739C441.276 140.291 439.523 134.449 436.018 130.069C432.512 125.687 427.983 123.496 422.142 123.496C415.277 123.496 409.872 125.833 406.075 130.507C402.279 135.179 400.526 140.437 400.526 146.717ZM479.104 178.407C476.33 179.721 473.701 180.305 471.363 180.305C462.6 180.305 458.219 175.047 458.219 164.533V124.957H447.556V120.138H458.219V104.658L460.849 103.781L463.477 102.905V120.138H479.104V124.957H463.477V164.095C463.477 168.183 464.06 171.105 465.375 173.003C466.69 174.901 468.882 175.777 471.949 175.777C474.138 175.777 476.476 175.047 479.104 173.587V178.407Z" fill="#007ACC"/>
<path d="M488.7 78.9703H12.9507V215.588H488.7V78.9703Z" fill="white"/>
<mask id="mask1_21_26" style="mask-type:luminance" maskUnits="userSpaceOnUse" x="87" y="9" width="326" height="297">
<path d="M412.265 9.26483H87.7349V305.735H412.265V9.26483Z" fill="white"/>
</mask>
<g mask="url(#mask1_21_26)">
<mask id="mask2_21_26" style="mask-type:luminance" maskUnits="userSpaceOnUse" x="87" y="9" width="326" height="297">
<path d="M412.265 9.26483H87.7349V305.735H412.265V9.26483Z" fill="white"/>
</mask>
<g mask="url(#mask2_21_26)">
<mask id="mask3_21_26" style="mask-type:luminance" maskUnits="userSpaceOnUse" x="87" y="9" width="326" height="297">
<path d="M412.265 9.26483H87.7349V305.735H412.265V9.26483Z" fill="white"/>
</mask>
<g mask="url(#mask3_21_26)">
<path d="M248.094 208.09C246.995 208.09 245.969 207.796 245.015 207.283L235.266 201.491C233.801 200.684 234.534 200.391 234.973 200.245C236.953 199.584 237.32 199.438 239.371 198.265C239.591 198.119 239.884 198.191 240.104 198.339L247.581 202.81C247.874 202.958 248.24 202.958 248.461 202.81L277.707 185.875C278 185.728 278.147 185.434 278.147 185.068V151.269C278.147 150.902 278 150.608 277.707 150.462L248.461 133.599C248.168 133.452 247.801 133.452 247.581 133.599L218.334 150.462C218.041 150.608 217.895 150.975 217.895 151.269V185.068C217.895 185.362 218.041 185.728 218.334 185.875L226.324 190.494C230.649 192.693 233.361 190.127 233.361 187.561V154.201C233.361 153.762 233.728 153.321 234.241 153.321H237.979C238.419 153.321 238.858 153.688 238.858 154.201V187.561C238.858 193.353 235.707 196.726 230.209 196.726C228.523 196.726 227.204 196.726 223.466 194.893L215.769 190.494C213.863 189.394 212.69 187.34 212.69 185.141V151.342C212.69 149.143 213.863 147.089 215.769 145.989L245.015 129.053C246.849 128.027 249.34 128.027 251.173 129.053L280.419 145.989C282.325 147.089 283.498 149.143 283.498 151.342V185.141C283.498 187.34 282.325 189.394 280.419 190.494L251.173 207.431C250.293 207.796 249.194 208.09 248.094 208.09Z" fill="#699F63"/>
<path d="M257.184 184.849C244.356 184.849 241.717 178.983 241.717 173.997C241.717 173.557 242.083 173.118 242.596 173.118H246.408C246.849 173.118 247.214 173.411 247.214 173.85C247.801 177.737 249.487 179.643 257.256 179.643C263.414 179.643 266.053 178.25 266.053 174.95C266.053 173.044 265.32 171.651 255.717 170.697C247.727 169.891 242.744 168.132 242.744 161.752C242.744 155.814 247.727 152.295 256.084 152.295C265.466 152.295 270.084 155.521 270.67 162.559C270.67 162.78 270.597 163 270.451 163.219C270.303 163.365 270.084 163.513 269.864 163.513H265.979C265.613 163.513 265.246 163.219 265.173 162.852C264.293 158.82 262.021 157.501 256.011 157.501C249.267 157.501 248.461 159.846 248.461 161.606C248.461 163.732 249.413 164.393 258.503 165.565C267.519 166.738 271.77 168.425 271.77 174.731C271.77 181.182 266.419 184.849 257.184 184.849Z" fill="#699F63"/>
<path d="M299.403 149.362C299.403 152.442 296.838 155.008 293.759 155.008C290.68 155.008 288.116 152.515 288.116 149.362C288.116 146.137 290.754 143.717 293.759 143.717C296.765 143.717 299.403 146.209 299.403 149.362ZM288.996 149.362C288.996 152.001 291.121 154.127 293.686 154.127C296.325 154.127 298.451 151.928 298.451 149.362C298.451 146.723 296.325 144.67 293.686 144.67C291.195 144.67 288.996 146.723 288.996 149.362ZM291.634 146.209H293.833C294.566 146.209 296.032 146.209 296.032 147.896C296.032 149.069 295.298 149.289 294.859 149.436C295.739 149.508 295.813 150.095 295.885 150.902C295.959 151.415 296.032 152.295 296.178 152.588H294.859C294.859 152.295 294.639 150.682 294.639 150.608C294.566 150.243 294.42 150.095 293.979 150.095H292.88V152.662H291.634V146.209ZM292.807 148.995H293.759C294.566 148.995 294.713 148.409 294.713 148.115C294.713 147.236 294.126 147.236 293.759 147.236H292.734V148.995H292.807Z" fill="#699F63"/>
<path fill-rule="evenodd" clip-rule="evenodd" d="M157.423 75.898C157.423 74.5782 156.69 73.3319 155.517 72.672L124.512 54.7093C123.998 54.4159 123.412 54.2693 122.826 54.1959C122.752 54.1959 122.532 54.1959 122.532 54.1959C121.946 54.1959 121.36 54.4159 120.847 54.7093L89.7676 72.5987C88.5948 73.2586 87.8618 74.505 87.8618 75.898L87.9351 123.994C87.9351 124.654 88.3016 125.314 88.888 125.607C89.4744 125.974 90.2074 125.974 90.7205 125.607L109.192 115.05C110.365 114.39 111.098 113.143 111.098 111.824V89.3152C111.098 87.9954 111.831 86.749 113.004 86.0891L120.847 81.5434C121.433 81.1769 122.093 81.0302 122.752 81.0302C123.412 81.0302 124.072 81.1769 124.585 81.5434L132.428 86.0891C133.601 86.749 134.334 87.9954 134.334 89.3152V111.824C134.334 113.143 135.067 114.39 136.239 115.05L154.564 125.607C155.151 125.974 155.884 125.974 156.47 125.607C157.056 125.314 157.423 124.654 157.423 123.994V75.898Z" fill="#333333"/>
<path fill-rule="evenodd" clip-rule="evenodd" d="M306.807 9.69212C306.22 9.39885 305.488 9.39885 304.975 9.69212C304.388 10.0587 304.021 10.6453 304.021 11.3051V58.9616C304.021 59.4015 303.801 59.8414 303.362 60.1347C302.922 60.3546 302.482 60.3546 302.043 60.1347L294.273 55.6624C293.101 55.0025 291.708 55.0025 290.535 55.6624L259.455 73.6251C258.283 74.285 257.55 75.5313 257.55 76.8511V112.703C257.55 114.023 258.283 115.27 259.455 115.929L290.535 133.892C291.708 134.552 293.101 134.552 294.273 133.892L325.352 115.929C326.525 115.27 327.258 114.023 327.258 112.703V23.3292C327.258 21.9362 326.525 20.6898 325.352 20.0299L306.807 9.69212ZM303.949 100.899C303.949 101.266 303.801 101.559 303.508 101.706L292.88 107.864C292.586 108.011 292.221 108.011 291.927 107.864L281.299 101.706C281.006 101.559 280.86 101.193 280.86 100.899V88.582C280.86 88.2153 281.006 87.9221 281.299 87.7754L291.927 81.6168C292.221 81.4701 292.586 81.4701 292.88 81.6168L303.508 87.7754C303.801 87.9221 303.949 88.2887 303.949 88.582V100.899Z" fill="#333333"/>
<path fill-rule="evenodd" clip-rule="evenodd" d="M410.232 88.2887C411.405 87.6289 412.064 86.3825 412.064 85.0627V76.3379C412.064 75.0182 411.332 73.7718 410.232 73.1119L379.373 55.2225C378.201 54.5626 376.808 54.5626 375.635 55.2225L344.555 73.1853C343.384 73.8451 342.65 75.0916 342.65 76.4112V112.264C342.65 113.583 343.384 114.83 344.555 115.49L375.415 133.086C376.588 133.746 377.981 133.746 379.081 133.086L397.772 122.675C398.358 122.381 398.724 121.722 398.724 121.062C398.724 120.402 398.358 119.742 397.772 119.449L366.546 101.486C365.96 101.119 365.593 100.533 365.593 99.8729V88.6553C365.593 87.9954 365.96 87.3356 366.546 87.0422L376.295 81.4701C376.882 81.1036 377.614 81.1036 378.201 81.4701L387.949 87.0422C388.536 87.4089 388.902 87.9954 388.902 88.6553V97.4534C388.902 98.1132 389.269 98.7731 389.855 99.0663C390.442 99.433 391.174 99.433 391.761 99.0663L410.232 88.2887Z" fill="#333333"/>
<path fill-rule="evenodd" clip-rule="evenodd" d="M377.028 86.6024C377.247 86.4558 377.541 86.4558 377.76 86.6024L383.698 90.0483C383.918 90.1949 384.064 90.4149 384.064 90.7082V97.6C384.064 97.8934 383.918 98.1132 383.698 98.2599L377.76 101.706C377.541 101.852 377.247 101.852 377.028 101.706L371.091 98.2599C370.871 98.1132 370.724 97.8934 370.724 97.6V90.7082C370.724 90.4149 370.871 90.1949 371.091 90.0483L377.028 86.6024Z" fill="#699F63"/>
<path fill-rule="evenodd" clip-rule="evenodd" d="M209.392 55.369C208.219 54.7092 206.827 54.7092 205.654 55.369L174.795 73.1853C173.622 73.845 172.962 75.0915 172.962 76.4112V112.117C172.962 113.437 173.695 114.683 174.795 115.343L205.654 133.159C206.827 133.819 208.219 133.819 209.392 133.159L240.251 115.343C241.425 114.683 242.084 113.437 242.084 112.117V76.4112C242.084 75.0915 241.351 73.845 240.251 73.1853L209.392 55.369Z" fill="url(#paint0_linear_21_26)"/>
<mask id="mask4_21_26" style="mask-type:luminance" maskUnits="userSpaceOnUse" x="172" y="54" width="71" height="80">
<path d="M209.392 55.3688C208.22 54.7089 206.827 54.7089 205.654 55.3688L174.794 73.1849C173.622 73.8448 172.962 75.0912 172.962 76.4109V112.117C172.962 113.436 173.695 114.683 174.794 115.343L205.654 133.159C206.827 133.818 208.22 133.818 209.392 133.159L240.251 115.343C241.425 114.683 242.084 113.436 242.084 112.117V76.4109C242.084 75.0912 241.351 73.8448 240.251 73.1849L209.392 55.3688Z" fill="white"/>
</mask>
<g mask="url(#mask4_21_26)">
<path d="M240.325 73.1852L209.319 55.369C209.026 55.2224 208.659 55.0757 208.366 55.0024L173.622 114.463C173.915 114.83 174.282 115.123 174.648 115.343L205.654 133.159C206.533 133.672 207.56 133.819 208.512 133.526L241.131 73.845C240.91 73.5518 240.617 73.3318 240.325 73.1852Z" fill="url(#paint1_linear_21_26)"/>
</g>
<mask id="mask5_21_26" style="mask-type:luminance" maskUnits="userSpaceOnUse" x="172" y="54" width="71" height="80">
<path d="M209.392 55.3688C208.22 54.7089 206.827 54.7089 205.654 55.3688L174.794 73.1849C173.622 73.8448 172.962 75.0912 172.962 76.4109V112.117C172.962 113.436 173.695 114.683 174.794 115.343L205.654 133.159C206.827 133.818 208.22 133.818 209.392 133.159L240.251 115.343C241.425 114.683 242.084 113.436 242.084 112.117V76.4109C242.084 75.0912 241.351 73.8448 240.251 73.1849L209.392 55.3688Z" fill="white"/>
</mask>
<g mask="url(#mask5_21_26)">
<path d="M240.325 115.343C241.204 114.83 241.864 113.95 242.157 112.997L208.219 54.929C207.34 54.7825 206.387 54.8558 205.581 55.369L174.795 73.1118L208 133.672C208.439 133.599 208.952 133.452 209.392 133.232L240.325 115.343Z" fill="url(#paint2_linear_21_26)"/>
<path d="M240.325 115.343L209.392 133.159C208.952 133.379 208.513 133.526 208 133.599L208.732 134.699L243.183 114.83V114.39L242.231 112.923C242.01 113.95 241.277 114.83 240.325 115.343Z" fill="url(#paint3_linear_21_26)"/>
<path d="M240.325 115.343L209.392 133.159C208.952 133.379 208.513 133.526 208 133.599L208.732 134.699L243.183 114.83V114.39L242.231 112.923C242.01 113.95 241.277 114.83 240.325 115.343Z" fill="url(#paint4_linear_21_26)"/>
</g>
<path d="M94.3123 270.777C95.1186 273.855 96.3646 276.568 98.0505 278.841C99.7364 281.114 101.862 282.947 104.501 284.267C107.14 285.586 110.365 286.247 114.176 286.247C119.82 286.247 124.512 284.78 128.25 281.774C131.988 278.841 134.26 274.37 135.213 268.43H137.266C136.533 274.662 134.041 279.574 129.862 283.021C125.684 286.466 120.553 288.153 114.396 288.153C110.218 288.226 106.627 287.566 103.695 286.173C100.763 284.78 98.3437 282.801 96.4379 280.308C94.5322 277.741 93.1395 274.809 92.2599 271.363C91.3803 267.917 90.8672 264.178 90.8672 260.219C90.8672 255.746 91.5269 251.786 92.8463 248.341C94.1657 244.895 95.9248 241.889 98.0505 239.542C100.176 237.123 102.742 235.29 105.6 234.045C108.459 232.797 111.391 232.138 114.396 232.138C118.574 232.138 122.166 232.945 125.171 234.558C128.177 236.171 130.669 238.297 132.574 240.936C134.48 243.576 135.873 246.582 136.753 250.027C137.632 253.473 137.999 256.992 137.852 260.659H92.9929C93.0662 264.324 93.506 267.697 94.3123 270.777ZM134.407 249.295C133.527 246.361 132.135 243.722 130.376 241.522C128.616 239.323 126.417 237.564 123.779 236.244C121.14 234.923 118.061 234.338 114.616 234.338C111.684 234.338 108.972 234.923 106.407 236.023C103.841 237.123 101.642 238.736 99.7364 240.863C97.8306 242.989 96.2913 245.555 95.1186 248.561C93.9458 251.567 93.2128 254.94 93.0662 258.679H135.873C135.8 255.379 135.36 252.227 134.407 249.295Z" fill="black"/>
<path d="M182.638 233.458L162.994 259.339L184.47 287.127H181.832L161.674 260.952L141.517 287.127H139.025L160.428 259.339L140.93 233.458H143.643L161.674 257.799L180.146 233.458H182.638Z" fill="black"/>
<path d="M188.722 305.529V233.458H190.774V248.488H190.994C191.654 246.141 192.68 243.942 193.999 241.963C195.319 239.983 196.858 238.223 198.69 236.83C200.523 235.364 202.575 234.264 204.921 233.458C207.266 232.651 209.758 232.284 212.471 232.284C215.989 232.284 219.214 233.017 222 234.338C224.785 235.731 227.204 237.71 229.183 240.203C231.162 242.696 232.702 245.702 233.728 249.074C234.754 252.52 235.266 256.186 235.266 260.219C235.266 263.958 234.754 267.551 233.728 270.996C232.702 274.442 231.235 277.374 229.329 279.941C227.424 282.508 225.005 284.56 222.146 286.027C219.288 287.492 215.989 288.299 212.324 288.299C206.607 288.299 201.916 286.833 198.251 283.827C194.586 280.895 192.093 276.935 190.847 272.096H190.627V305.529H188.722ZM221.926 283.973C224.564 282.434 226.691 280.38 228.376 277.889C230.062 275.396 231.309 272.609 232.115 269.53C232.921 266.451 233.287 263.298 233.287 260.219C233.287 256.772 232.848 253.473 231.968 250.321C231.089 247.241 229.842 244.455 228.084 242.109C226.398 239.69 224.199 237.783 221.633 236.39C218.994 234.997 215.989 234.338 212.471 234.338C209.026 234.338 206.02 235.071 203.308 236.39C200.596 237.783 198.324 239.69 196.491 242.035C194.659 244.382 193.266 247.167 192.24 250.247C191.287 253.401 190.774 256.699 190.774 260.146C190.774 268.577 192.753 275.029 196.711 279.502C200.669 283.973 205.947 286.247 212.471 286.247C216.209 286.32 219.361 285.514 221.926 283.973Z" fill="black"/>
<path d="M244.795 287.127V233.458H246.848V246.728H247.068C247.581 244.676 248.314 242.842 249.34 241.009C250.367 239.25 251.76 237.71 253.518 236.39C255.278 235.071 257.33 234.045 259.748 233.238C262.167 232.504 264.953 232.138 268.178 232.211V234.264C264.514 234.045 261.289 234.558 258.649 235.803C255.937 237.051 253.738 238.664 252.052 240.79C250.293 242.915 249.046 245.335 248.168 248.121C247.361 250.908 246.921 253.766 246.921 256.699V287.053H244.795V287.127Z" fill="black"/>
<path d="M272.063 270.777C272.87 273.855 274.115 276.568 275.801 278.841C277.487 281.114 279.613 282.947 282.251 284.267C284.891 285.586 288.116 286.247 291.927 286.247C297.571 286.247 302.263 284.78 306.001 281.774C309.739 278.841 312.011 274.37 312.965 268.43H315.017C314.284 274.662 311.792 279.574 307.613 283.021C303.436 286.466 298.304 288.153 292.147 288.153C287.969 288.226 284.378 287.566 281.445 286.173C278.513 284.78 276.095 282.801 274.189 280.308C272.283 277.741 270.89 274.809 270.01 271.363C269.132 267.917 268.619 264.178 268.619 260.219C268.619 255.746 269.278 251.786 270.597 248.341C271.916 244.895 273.676 241.889 275.801 239.542C277.927 237.123 280.493 235.29 283.351 234.045C286.21 232.797 289.142 232.138 292.147 232.138C296.326 232.138 299.918 232.945 302.922 234.558C305.927 236.171 308.419 238.297 310.325 240.936C312.231 243.576 313.624 246.582 314.504 250.027C315.384 253.473 315.749 256.992 315.603 260.659H270.744C270.816 264.324 271.257 267.697 272.063 270.777ZM312.231 249.295C311.351 246.361 309.959 243.722 308.2 241.522C306.441 239.323 304.242 237.564 301.602 236.244C298.964 234.923 295.885 234.338 292.44 234.338C289.509 234.338 286.797 234.923 284.231 236.023C281.666 237.123 279.467 238.736 277.561 240.863C275.655 242.989 274.115 245.555 272.943 248.561C271.77 251.567 271.037 254.94 270.89 258.679H313.697C313.55 255.379 313.111 252.227 312.231 249.295Z" fill="black"/>
<path d="M357.676 242.476C356.87 240.57 355.625 239.029 354.158 237.857C352.619 236.61 350.787 235.731 348.66 235.217C346.535 234.631 344.19 234.41 341.624 234.41C337.886 234.41 334.881 234.923 332.755 235.951C330.63 236.977 329.017 238.077 327.918 239.396C326.89 240.716 326.232 241.963 325.938 243.209C325.645 244.455 325.498 245.335 325.498 245.848C325.498 248.488 326.012 250.541 327.111 251.934C328.21 253.327 329.603 254.427 331.436 255.233C333.342 255.966 335.32 256.626 337.519 257.213C339.718 257.799 342.284 258.459 345.216 259.192C347.268 259.778 349.394 260.292 351.446 260.878C353.499 261.465 355.331 262.271 356.944 263.298C358.556 264.324 359.875 265.645 360.901 267.258C361.929 268.87 362.442 270.923 362.442 273.489C362.442 276.202 361.855 278.474 360.755 280.38C359.582 282.287 358.117 283.827 356.284 284.999C354.451 286.173 352.326 287.053 350.053 287.566C347.708 288.079 345.435 288.372 343.09 288.372C335.906 288.372 330.482 286.833 326.89 283.68C323.3 280.528 321.394 275.615 321.394 268.87H323.446C323.446 274.955 325.132 279.354 328.503 282.214C331.875 284.999 336.713 286.466 343.09 286.466C345.07 286.466 347.048 286.247 349.101 285.806C351.153 285.366 352.985 284.634 354.671 283.607C356.357 282.58 357.75 281.26 358.776 279.721C359.875 278.108 360.388 276.202 360.388 273.855C360.388 271.509 359.875 269.603 358.776 268.136C357.676 266.671 356.284 265.497 354.597 264.545C352.913 263.591 350.933 262.858 348.734 262.271C346.535 261.685 344.262 261.172 341.917 260.585C339.352 259.926 337.08 259.339 335.1 258.826C333.121 258.239 331.436 257.653 329.896 256.92C327.697 255.966 326.012 254.573 324.985 252.814C323.959 251.054 323.446 248.708 323.446 245.848C323.446 244.382 323.739 242.842 324.399 241.229C325.058 239.616 326.084 238.15 327.551 236.83C329.017 235.51 330.923 234.41 333.194 233.604C335.467 232.797 338.325 232.358 341.624 232.358C347.635 232.358 352.326 233.751 355.844 236.464C359.289 239.177 361.049 243.502 361.049 249.514H358.996C358.923 246.654 358.556 244.309 357.676 242.476Z" fill="black"/>
<path d="M406.054 242.476C405.248 240.57 404.002 239.029 402.536 237.857C400.997 236.61 399.165 235.731 397.038 235.217C394.912 234.631 392.567 234.41 390.001 234.41C386.263 234.41 383.258 234.923 381.133 235.951C379.007 236.977 377.395 238.077 376.295 239.396C375.269 240.716 374.609 241.963 374.316 243.209C374.022 244.455 373.876 245.335 373.876 245.848C373.876 248.488 374.389 250.541 375.489 251.934C376.588 253.327 377.981 254.427 379.813 255.233C381.719 255.966 383.699 256.626 385.896 257.213C388.096 257.799 390.662 258.459 393.593 259.192C395.646 259.778 397.772 260.292 399.824 260.878C401.877 261.465 403.709 262.271 405.321 263.298C406.934 264.324 408.253 265.645 409.28 267.258C410.306 268.87 410.819 270.923 410.819 273.489C410.819 276.202 410.232 278.474 409.133 280.38C407.96 282.287 406.494 283.827 404.661 284.999C402.829 286.173 400.703 287.053 398.431 287.566C396.086 288.079 393.813 288.372 391.468 288.372C384.284 288.372 378.86 286.833 375.269 283.68C371.677 280.528 369.771 275.615 369.771 268.87H371.823C371.823 274.955 373.509 279.354 376.882 282.214C380.253 284.999 385.09 286.466 391.468 286.466C393.447 286.466 395.425 286.247 397.478 285.806C399.53 285.366 401.364 284.634 403.049 283.607C404.735 282.58 406.127 281.26 407.153 279.721C408.253 278.108 408.766 276.202 408.766 273.855C408.766 271.509 408.253 269.603 407.153 268.136C406.054 266.671 404.661 265.497 402.976 264.545C401.29 263.591 399.311 262.858 397.111 262.271C394.912 261.685 392.641 261.172 390.295 260.585C387.73 259.926 385.457 259.339 383.478 258.826C381.5 258.239 379.813 257.653 378.273 256.92C376.075 255.966 374.389 254.573 373.363 252.814C372.336 251.054 371.823 248.708 371.823 245.848C371.823 244.382 372.117 242.842 372.777 241.229C373.436 239.616 374.462 238.15 375.928 236.83C377.395 235.51 379.3 234.41 381.572 233.604C383.845 232.797 386.704 232.358 390.001 232.358C396.012 232.358 400.703 233.751 404.222 236.464C407.666 239.177 409.426 243.502 409.426 249.514H407.374C407.301 246.654 406.86 244.309 406.054 242.476Z" fill="black"/>
</g>
</g>
</g>
</g>
<defs>
<linearGradient id="paint0_linear_21_26" x1="220.091" y1="68.6378" x2="192.178" y2="125.565" gradientUnits="userSpaceOnUse">
<stop stop-color="#41873F"/>
<stop offset="0.3288" stop-color="#418B3D"/>
<stop offset="0.6352" stop-color="#419637"/>
<stop offset="0.9319" stop-color="#3FA92D"/>
<stop offset="1" stop-color="#3FAE2A"/>
</linearGradient>
<linearGradient id="paint1_linear_21_26" x1="202.833" y1="98.4332" x2="281.136" y2="40.5933" gradientUnits="userSpaceOnUse">
<stop stop-color="#41873F"/>
<stop offset="0.1376" stop-color="#41873F"/>
<stop offset="0.4032" stop-color="#54A044"/>
<stop offset="0.7136" stop-color="#66B848"/>
<stop offset="0.9081" stop-color="#6CC04A"/>
<stop offset="1" stop-color="#6CC04A"/>
</linearGradient>
<linearGradient id="paint2_linear_21_26" x1="171.831" y1="94.2527" x2="243.237" y2="94.2527" gradientUnits="userSpaceOnUse">
<stop stop-color="#6CC04A"/>
<stop offset="0.0919165" stop-color="#6CC04A"/>
<stop offset="0.2864" stop-color="#66B848"/>
<stop offset="0.5968" stop-color="#54A044"/>
<stop offset="0.8624" stop-color="#41873F"/>
<stop offset="1" stop-color="#41873F"/>
</linearGradient>
<linearGradient id="paint3_linear_21_26" x1="171.599" y1="123.859" x2="243.462" y2="123.859" gradientUnits="userSpaceOnUse">
<stop stop-color="#6CC04A"/>
<stop offset="0.0919165" stop-color="#6CC04A"/>
<stop offset="0.2864" stop-color="#66B848"/>
<stop offset="0.5968" stop-color="#54A044"/>
<stop offset="0.8624" stop-color="#41873F"/>
<stop offset="1" stop-color="#41873F"/>
</linearGradient>
<linearGradient id="paint4_linear_21_26" x1="253.752" y1="66.9499" x2="209.696" y2="156.802" gradientUnits="userSpaceOnUse">
<stop stop-color="#41873F"/>
<stop offset="0.3288" stop-color="#418B3D"/>
<stop offset="0.6352" stop-color="#419637"/>
<stop offset="0.9319" stop-color="#3FA92D"/>
<stop offset="1" stop-color="#3FAE2A"/>
</linearGradient>
</defs>
</svg>
