<svg width="40" height="40" viewBox="0 0 40 40" fill="none" xmlns="http://www.w3.org/2000/svg">
<g clip-path="url(#clip0_2534_279)">
<path d="M40 20C40 26.431 36.9641 32.1534 32.2473 35.8123C28.8637 38.4376 24.6147 40 20 40C15.3853 40 11.1363 38.4376 7.75266 35.8123C3.03594 32.1534 0 26.431 0 20C0 8.9543 8.9543 0 20 0C31.0457 0 40 8.9543 40 20Z" fill="url(#paint0_linear_2534_279)" fill-opacity="0.5"/>
<path d="M40 20C40 26.431 36.9641 32.1534 32.2473 35.8123C28.8637 38.4376 24.6147 40 20 40C15.3853 40 11.1363 38.4376 7.75266 35.8123C3.03594 32.1534 0 26.431 0 20C0 8.9543 8.9543 0 20 0C31.0457 0 40 8.9543 40 20Z" fill="#5687D0" fill-opacity="0.5"/>
<path d="M34.5307 9.33398L32.2475 35.8123C28.8638 38.4377 24.6148 40.0001 20.0001 40.0001C15.3854 40.0001 11.1364 38.4377 7.75276 35.8123L5.46948 9.33398H34.5307Z" fill="#006BC0"/>
<path d="M19.9998 11.8232V39.4762L29.5523 36.7794L31.6832 11.8232H19.9998Z" fill="#0096DC"/>
<path d="M28.4403 22.6399H21.5507L28.7499 18.9761L29.061 15.293H10.9385L11.2556 19.048H18.5304L11.5504 22.5381L11.8751 26.3849H24.3262L23.9181 30.9664L19.9997 32.0277L15.9181 30.8848L15.8161 28.0277H12.0139L12.4895 33.6603L19.9997 35.7827L27.5099 33.6603L28.4405 22.6393L28.4403 22.6399Z" fill="white"/>
<path d="M12.5605 6.42758V3.81531H16.3156V2.40039H11.2V7.8425H16.3156V6.42758H12.5605Z" fill="#FDFDFD"/>
<path d="M18.5128 4.52961V3.87648H22.2475V3.81531V2.40039H17.1318V5.77445H20.7985V6.42758H17.1318V7.8425H22.2475V6.42758V4.52961H18.5128Z" fill="#FDFDFD"/>
<path d="M24.3494 4.52961V3.87648H28.0841V3.81531V2.40039H22.9685V5.77445H26.6351V6.42758H22.9685V7.8425H28.0841V6.42758V4.52961H24.3494Z" fill="#FDFDFD"/>
</g>
<defs>
<linearGradient id="paint0_linear_2534_279" x1="29.6" y1="2.8" x2="7.2" y2="36" gradientUnits="userSpaceOnUse">
<stop stop-color="#C778F3"/>
<stop offset="1" stop-color="#C778F3" stop-opacity="0"/>
</linearGradient>
<clipPath id="clip0_2534_279">
<rect width="40" height="40" fill="white"/>
</clipPath>
</defs>
</svg>
