<svg width="40" height="40" viewBox="0 0 40 40" fill="none" xmlns="http://www.w3.org/2000/svg">
<mask id="mask0_2536_331" style="mask-type:luminance" maskUnits="userSpaceOnUse" x="0" y="0" width="40" height="40">
<path d="M40 0H0V40H40V0Z" fill="white"/>
</mask>
<g mask="url(#mask0_2536_331)">
<path d="M0 0L3.3335 36.6665L20 40L36.6665 36.6665L40 0H0ZM18.3335 32.866L9.52148 31.1065L8.9665 25H12.3145L12.6159 28.3265L14.9999 28.802V6.6665H18.3334L18.3335 32.866ZM32.396 10H25V18.3335H31.639L30.4785 31.107L21.6665 32.8665V29.468L27.383 28.327L27.9885 21.667H21.6665V6.66699H32.6985L32.396 10Z" fill="#5E4CC9"/>
<path d="M0 0L3.3335 36.6665L20 40L36.6665 36.6665L40 0H0ZM18.3335 32.866L9.52148 31.1065L8.9665 25H12.3145L12.6159 28.3265L14.9999 28.802V6.6665H18.3334L18.3335 32.866ZM32.396 10H25V18.3335H31.639L30.4785 31.107L21.6665 32.8665V29.468L27.383 28.327L27.9885 21.667H21.6665V6.66699H32.6985L32.396 10Z" fill="url(#paint0_radial_2536_331)" fill-opacity="0.2"/>
</g>
<defs>
<radialGradient id="paint0_radial_2536_331" cx="0" cy="0" r="1" gradientUnits="userSpaceOnUse" gradientTransform="translate(38 1.5) rotate(134.145) scale(47.3814)">
<stop offset="0.224205" stop-color="#5967E1" stop-opacity="0.5"/>
<stop offset="0.935657" stop-color="#232E8D" stop-opacity="0.5"/>
</radialGradient>
</defs>
</svg>
